<svg
  width="1440"
  height="760"
  preserveAspectRatio="none"
  version="1.1"
  viewBox="0 0 1440 760"
  xmlns="http://www.w3.org/2000/svg"
>
  <g mask='url("#SvgjsMask1020")'>
    <rect width="1440" height="760" fill="#fafafa" />
    <path
      d="m24.693 356.06c70.81 3.356 153.24-2.4816 208.89-43.557 51.987-38.37 71.501-134.99 107.44-187.01 42.696-61.8 99.162-108.79 105.13-182.15 6.3719-78.372-17.368-168.44-82.94-217.61-65.165-48.873-163.4-6.14-243.78-27.419-79.169-20.959-137.26-100.19-219.37-95.193-85.344 5.192-177.69 49.714-215.11 121.62-37.466 72.006 36.604 153.8 30.252 233.66-5.6778 71.383-93.644 135.13-64.858 201.46 28.536 65.75 129.52 65.355 195.71 100.05 61.172 32.062 108.6 92.834 178.63 96.154"
      fill="#eeeeee"
      stroke-width="1.0342"
    />
    <path
      d="m1381.3 1427.3c112.03-5.2484 188.06-97.643 270.41-163.75 69.407-55.714 133.65-114.82 170.67-190.31 36.347-74.123 37.711-153.95 37.643-234.5-0.079-93.078 28.264-198.43-38.074-271.58-66.506-73.332-191.32-74.658-295.84-96.608-99.529-20.9-233.76 56.759-333.88 75.441-104.47 19.494-264.49-37.356-340.69 27.639-80.776 68.891-50.728 153.21-71.635 249.8-21.327 98.526 0.15858 203.58 58.098 290.31 55.392 82.919 161.48 122.98 253.45 176.05 93.581 54.009 177.63 142.76 289.85 137.5"
      fill="#eeeeee"
      stroke-width=".80722"
    />
  </g>
  <defs>
    <mask id="SvgjsMask1020">
      <rect width="1440" height="760" fill="#fff" />
    </mask>
  </defs>
</svg>
