<svg
  width="300"
  height="217.06"
  version="1.1"
  viewBox="0 0 300 217.06"
  xmlns="http://www.w3.org/2000/svg"
>
  <path
    d="m300 119.51c0 0.21086-0.17094 0.3818-0.38181 0.3818h-299.62v-0.76361h299.62c0.21087 0 0.38181 0.17095 0.38181 0.38181z"
    fill="#e6e6e6"
    stroke-width=".45452"
  />
  <g transform="scale(.45452)">
    <circle cx="216.75" cy="34.02" r="24.912" fill="#ffb6b6" />
    <path
      d="m229.95 64.188-32.791 9.3687-4.6844 10.54-10.54 50.357v79.634s-12.882 28.106-5.8555 52.699c7.5107 26.287 33.962-4.7397 53.87-1.1988s51.528 7.0542 51.528 7.0542l-18.737-85.49-4.6844-104.23-28.106-18.737z"
      fill="#e6e6e6"
    />
    <path
      d="m223.76 42.178-5.0648-2.5324s-1.2662-11.396-3.7986-13.928-2.5324-3.7986-2.5324-3.7986l3.7986-5.0648s-18.993 10.13-22.792 3.7986 1.2662-8.8634 1.2662-8.8634l-6.331-5.0648s7.5972 5.0648 8.8634 1.2662 8.8634-6.3759 8.8634-6.3759 16.59 3.7537 15.259 0 3.7338 0.04487 5 1.3111 12.662 13.928 13.928 12.662 7.5972 2.5324 6.331 3.7986-1.2662 2.5324 0 3.7986 8.8634 15.194 2.5324 20.259-15.194 11.396-13.928 16.461 0-16.461-11.396-17.727z"
      fill="#2f2e41"
    />
    <path
      d="m100.96 104.9c-6.394-5.5118-8.7328-13.279-5.2244-17.347 3.5084-4.0686 11.534-2.8978 17.93 2.6168 2.585 2.1678 4.6132 4.9232 5.915 8.0356l26.797 23.696-11.388 12.338-25.208-24.67c-3.2712-0.82947-6.2962-2.4304-8.8216-4.669z"
      fill="#ffb6b6"
    />
    <path
      d="m192.76 84.499 17.651-1.6046 15.48 73.826c2.9496 14.067-6.2716 27.801-20.409 30.396l-12.722 2.3353-81.086-71.394 11.847-19.749 59.797 37.51 9.4422-51.32z"
      fill="#e6e6e6"
    />
    <path d="m153.35 412.81s-14 26-13 25 18 5 18 5l10-26z" fill="#ffb6b6" />
    <path
      d="m132.69 230.82s-7.1666 28.647-6.4436 27.431 18.677 0.41363 18.677 0.41363l3.2897-27.662-15.523-0.18316z"
      fill="#ffb6b6"
    />
    <g fill="#2f2e41">
      <path
        d="m257.35 226c-31.638 4.4446-60.215 0.56946-83.5-17.688 0 0-17 57 14 63s65.5-4.3125 69.5-14.312 0-31 0-31z"
      />
      <polygon
        points="168.85 424.31 206.41 337.81 257.35 255 198.35 244 163.85 325.31 147.85 419.31"
      />
      <path
        d="m193.85 220.81s-8-62-23-66c-7.3126-1.95-14.15-1.7611-19.237-1.0553-5.1276 0.7114-9.2153 4.629-10.112 9.7275l-13.631 77.515h19.276l6.2047-21 16.5 28.812 24-28z"
      />
      <path
        d="m144.85 250.81-19.059-2-2.9409 11s-31 28-15 30 31-9 31-9l22.01-12.626s-8.5098-22.687-14.51-22.687-1.5 5.3125-1.5 5.3125z"
      />
      <path
        d="m154.85 438.31-19.059-2-2.9409 11s-31 28-15 30 31-9 31-9l22.01-12.626s-1.5098-23.687-7.5098-23.687-8.5 6.3125-8.5 6.3125z"
      />
    </g>
    <path
      d="m251.35 286.93c-2.298 7.8814-8.2273 13.084-13.243 11.621-5.0155-1.4633-7.2173-9.0377-4.9174-16.922 0.87551-3.1619 2.4955-6.0682 4.7244-8.4756l10.158-33.271 15.511 5.0998-11.661 32.258c0.58564 3.2292 0.38922 6.5518-0.57282 9.6895z"
      fill="#ffb6b6"
    />
    <path
      d="m262.09 83.07-8.0881-2.2811v2e-5c-7.6267 15.174-10.906 32.163-9.4756 49.086l3.9919 47.22-13.171 82.998 25.816 6.6789 20.344-104.16-19.417-79.543z"
      fill="#e6e6e6"
    />
    <g fill="#f2f2f2">
      <path
        d="m104.63 212.84c-0.35419-1.0838-3.0387-0.60669-3.2964-1.5761-0.25685-0.96594 2.3191-1.7759 4.2948-4.498 0.3563-0.49089 2.6014-3.5844 1.7404-4.8855-1.6322-2.4662-12.988 3.6762-15.714 0.22927-0.59824-0.75646-0.84437-2.0551-2.6265-4.472-0.70898-0.96147-1.1638-1.4256-1.7073-1.4119-0.77113 0.0195-1.047 0.98418-2.259 2.7317-1.8176 2.6207-2.4735 2.2917-3.6709 4.4389-0.88887 1.594-0.9942 2.6125-1.6352 2.6726-0.90705 0.085-1.2818-1.8996-2.3902-1.9766-1.131-0.0785-2.2628 1.8825-2.8238 3.4146-1.0528 2.8751-0.40089 5.0726-0.25634 7.2627 0.15706 2.38-0.21174 5.864-2.7978 10.336l-24.392 38.862c5.2384-7.9223 20.108-29.526 26.099-37.45 1.7295-2.2876 3.588-4.5846 6.4486-5.0167 2.7541-0.41608 6.1051 0.9465 10.782 0.86718 0.54625-9e-3 2.0665-0.0544 2.4362-0.86016 0.30573-0.66614-0.45336-1.2453-0.17722-1.8715 0.37038-0.83991 2.0368-0.47957 4.3078-1.0374 1.6014-0.39336 2.6893-1.0432 3.6249-1.6021 0.28206-0.1685 4.4839-2.7138 4.0124-4.1566h-4e-5z"
      />
      <path
        d="m40.741 221.91c-0.63416-0.1389-1.1745 1.3164-1.7247 1.1631-0.54821-0.15264-0.20248-1.6506-0.96847-3.4057-0.13813-0.3165-1.0086-2.311-1.8957-2.2638-1.6814 0.0895-1.9432 7.4354-4.4215 7.7787-0.54387 0.0754-1.2523-0.17855-2.9527-1e-3 -0.67646 0.0706-1.0355 0.15987-1.1856 0.43056-0.21293 0.38409 0.18092 0.79788 0.68891 1.8969 0.76182 1.6482 0.41106 1.8752 1.1195 3.0825 0.52589 0.89619 0.99539 1.2418 0.8399 1.5737-0.22 0.4697-1.3022 0.081-1.6598 0.60279-0.36488 0.53245 0.27105 1.6537 0.86113 2.3711 1.1074 1.3463 2.374 1.6604 3.4906 2.2214 1.2135 0.60963 2.817 1.7959 4.2656 4.3554l12.036 23.184c-2.3769-4.8569-8.6896-18.388-10.85-23.615-0.62375-1.5089-1.2149-3.0838-0.60158-4.6125 0.59043-1.4718 2.2261-2.7233 3.5367-5.0419 0.15308-0.27078 0.56954-1.0299 0.28078-1.4439-0.23873-0.34225-0.74203-0.13679-0.96968-0.453-0.30536-0.42414 0.35231-1.138 0.73376-2.4136 0.26898-0.89945 0.26391-1.6209 0.25955-2.2414-0.0013-0.18705-0.03819-2.9837-0.88236-3.1686v6e-5z"
      />
      <path
        d="m52.749 227.57 0.37832-3.4929 0.23204-0.21944c1.0735-1.0146 1.7451-2.0895 1.997-3.1958 0.04009-0.17587 0.07113-0.35379 0.1029-0.53496 0.12563-0.71817 0.28159-1.611 0.97206-2.5382 0.38642-0.51664 1.4086-1.6843 2.4628-1.2765 0.28454 0.10665 0.47659 0.29111 0.61001 0.48669 0.03349-0.034 0.06781-0.0678 0.1045-0.10451 0.45539-0.44254 0.77396-0.60465 1.0808-0.76077 0.2358-0.12014 0.47929-0.24373 0.89134-0.5733 0.18077-0.1445 0.32552-0.27458 0.44749-0.38383 0.36992-0.33031 0.84308-0.71708 1.4912-0.56388 0.68704 0.18779 0.9226 0.84315 1.0789 1.277 0.27909 0.77389 0.36506 1.3061 0.42193 1.659 0.02048 0.12894 0.04423 0.27414 0.0622 0.32134 0.15038 0.379 2.0381 0.47702 2.7484 0.51798 1.5966 0.0866 2.9781 0.1616 3.3104 1.2548 0.2384 0.78209-0.25846 1.6351-1.5193 2.6028-0.39275 0.30105-0.78541 0.50883-1.1275 0.664 0.21041 0.19894 0.37804 0.4695 0.3883 0.83799 0.0231 0.87225-0.87152 1.5416-2.6589 1.9928-0.44416 0.11339-1.0416 0.26343-1.8234 0.22552-0.36818-0.0182-0.6907-0.0746-0.96567-0.12728-0.041 0.15667-0.11618 0.31955-0.25171 0.47414-0.39781 0.45538-1.0403 0.57117-1.9123 0.31448-0.96274-0.26828-1.7234-0.63312-2.3946-0.95383-0.5863-0.27931-1.0918-0.51816-1.516-0.58341-0.78894-0.11033-1.5246 0.37678-2.405 1.0251l-2.2061 1.655h-2e-5z"
      />
      <path
        d="m59.045 207.67-3.4746 0.52002-0.27111-0.16879c-1.2537-0.78108-2.4638-1.158-3.5978-1.1211-0.1803 6e-3 -0.36025 0.0209-0.54357 0.0362-0.72655 0.0606-1.6297 0.13624-2.7018-0.29644-0.59778-0.24273-1.9865-0.93531-1.8594-2.0585 0.03099-0.30227 0.16071-0.53484 0.31606-0.7135-0.04138-0.0238-0.08278-0.0484-0.1276-0.0746-0.54357-0.32826-0.7812-0.59529-1.01-0.85253-0.17602-0.19762-0.35734-0.40179-0.78064-0.71678-0.18563-0.13821-0.34817-0.24522-0.48479-0.33548-0.41335-0.27401-0.90747-0.63364-0.92367-1.2994 0.0074-0.7122 0.58157-1.1063 0.9616-1.3675 0.6778-0.46625 1.1708-0.68442 1.4978-0.82896 0.11952-0.0525 0.25396-0.11232 0.29506-0.14167 0.32846-0.24159-0.05553-2.0924-0.19606-2.7898-0.32117-1.5663-0.5991-2.9217 0.37411-3.5204 0.69605-0.42897 1.6472-0.16474 2.903 0.80945 0.39082 0.30354 0.69141 0.63066 0.92828 0.9222 0.13906-0.25398 0.35825-0.48479 0.7121-0.58814 0.83787-0.24358 1.7122 0.452 2.602 2.0664 0.22234 0.40087 0.51902 0.94071 0.68064 1.7065 0.07577 0.36075 0.10303 0.68702 0.12182 0.96639 0.16196-9e-5 0.33856 0.0313 0.52248 0.12321 0.54138 0.26929 0.81637 0.86137 0.78926 1.77-0.0153 0.9993-0.17526 1.8276-0.31524 2.5583-0.12147 0.63798-0.22429 1.1876-0.17979 1.6144 0.0934 0.79113 0.75118 1.3792 1.6016 2.0664l2.1604 1.7142h-9e-5z"
      />
      <path
        d="m59.513 197.24 0.37832-3.4929 0.23204-0.21944c1.0735-1.0146 1.7451-2.0895 1.997-3.1958 0.04009-0.17587 0.07113-0.35379 0.1029-0.53496 0.12563-0.71817 0.28159-1.611 0.97206-2.5382 0.38642-0.51664 1.4086-1.6843 2.4628-1.2765 0.28454 0.10665 0.47659 0.29111 0.61001 0.48669 0.03349-0.034 0.06781-0.0678 0.1045-0.10451 0.45539-0.44254 0.77396-0.60465 1.0808-0.76077 0.2358-0.12014 0.47929-0.24373 0.89134-0.5733 0.18077-0.1445 0.32552-0.27458 0.44749-0.38383 0.36992-0.33031 0.84308-0.71708 1.4912-0.56388 0.68704 0.18779 0.9226 0.84315 1.0789 1.277 0.27909 0.77389 0.36506 1.3061 0.42193 1.659 0.02048 0.12894 0.04423 0.27414 0.0622 0.32134 0.15038 0.379 2.0381 0.47702 2.7484 0.51798 1.5966 0.0866 2.9781 0.1616 3.3104 1.2548 0.2384 0.78209-0.25846 1.6351-1.5193 2.6028-0.39275 0.30105-0.78541 0.50883-1.1275 0.664 0.21041 0.19894 0.37804 0.4695 0.3883 0.83799 0.0231 0.87225-0.87152 1.5416-2.6589 1.9928-0.44416 0.11339-1.0416 0.26343-1.8234 0.22552-0.36818-0.0182-0.6907-0.0746-0.96567-0.12728-0.041 0.15667-0.11618 0.31955-0.25171 0.47414-0.39781 0.45538-1.0403 0.57117-1.9123 0.31448-0.96274-0.26828-1.7234-0.63312-2.3946-0.95383-0.5863-0.27931-1.0918-0.51816-1.516-0.58341-0.78894-0.11033-1.5246 0.37678-2.405 1.0251l-2.2061 1.655h-2e-5z"
      />
      <path
        d="m48.247 264.16-0.61431-0.60685 0.01109-0.8629-0.01109 0.8629-0.85388-0.0903c0.0041-0.0803-0.0015-0.26809-0.0078-0.56139-0.03285-1.6068-0.13482-6.4971 0.54614-14.011 0.47549-5.2452 1.27-10.569 2.3616-15.827 1.0934-5.2662 2.2282-9.1846 3.1396-12.334 0.68784-2.3754 1.3821-4.6284 2.0598-6.8229 1.8087-5.8633 3.5164-11.402 4.574-17.719 0.23682-1.4102 0.72832-4.3458-0.27798-7.8107-0.58387-2.0095-1.5836-3.9011-2.9723-5.6203l1.3441-1.0855c1.5324 1.8998 2.6379 3.9946 3.2864 6.2258 1.1157 3.8416 0.58022 7.0404 0.32292 8.5773-1.0764 6.4291-2.8012 12.021-4.6276 17.941-0.67427 2.1867-1.3663 4.4298-2.0511 6.7955-0.90321 3.1202-2.0278 7.0045-3.107 12.203-1.0793 5.1951-1.8636 10.454-2.3339 15.633-0.67194 7.4192-0.571 12.237-0.53795 13.819 0.01708 0.84502 0.02077 1.022-0.2508 1.2948v-2e-5z"
      />
      <path
        d="m52.514 184.75c-0.06911-0.0154-0.13867-0.0326-0.20832-0.0534-1.4176-0.39736-2.5547-1.5526-3.3807-3.4331-0.3866-0.88425-0.47786-1.8149-0.65983-3.6709-0.02857-0.2862-0.15473-1.7342 3.7e-4 -3.6532 0.10091-1.254 0.23571-1.7576 0.57696-2.1531 0.37896-0.44058 0.88952-0.69289 1.429-0.81956 0.01459-0.16603 0.06891-0.32837 0.17666-0.48226 0.44384-0.63856 1.1868-0.37612 1.5899-0.23958 0.2031 0.0729 0.45619 0.16566 0.74088 0.2136 0.44739 0.0773 0.71454-1e-3 1.1189-0.11836 0.38693-0.11234 0.86804-0.25204 1.533-0.24018 1.3122 0.018 2.2835 0.60778 2.6038 0.80185 1.6869 1.0136 2.2693 2.6308 2.9434 4.5032 0.13393 0.37533 0.57841 1.7319 0.68191 3.4789 0.07472 1.2603-0.09043 1.7762-0.2798 2.1451-0.38679 0.75839-0.97906 1.1099-2.449 1.8496-1.5357 0.77504-2.3062 1.1628-2.938 1.3622-1.4701 0.4615-2.3932 0.75133-3.4792 0.50911v4e-5z"
      />
    </g>
  </g>
  <path
    d="m203.05 17.519s4.3346 2.5421 2.913 5.056-3.4034 5.9382-2.0589 7.0166c1.3445 1.0784 3.5642 5.8333 3.5642 5.8333s9.4746-1.3233 8.5852 6.0365c-0.88949 7.3598-5.3405 8.3632-1.5255 11.601 3.815 3.2378-3.965 7.1101-3.965 7.1101s-5.371-1.6737-6.5964-6.8207c-1.2254-5.147 1.0923 3.9355 0.31502 4.5868-0.77731 0.65123-3.7955 4.9438-5.9312-0.76341-2.1357-5.7072-0.0208-7.92-2.8429-11.288-2.822-3.3683-4.7406-8.8165-4.6566-9.7688 0.0841-0.95236-3.228-9.6427 1.87-13.032 5.098-3.3892 10.329-5.5669 10.329-5.5669z"
    fill="#2f2e41"
    stroke-width=".45452"
  />
  <g transform="scale(.45452)">
    <path
      d="m540.67 214.23c5.537 4.5825 12.39 5.4401 15.305 1.9158s0.79041-10.095-4.7492-14.678c-2.1877-1.8612-4.7894-3.1715-7.5872-3.8211l-23.706-19.12-8.7354 11.316 24.297 17.648c1.162 2.6278 2.9365 4.9391 5.175 6.7403z"
      fill="#ffb6b6"
    />
    <path
      d="m469.62 109.96s-18.603-12.441-24.695-6.3407-4.6371 21.338-4.6371 21.338l48.786 56.856 38.685 24.59 10.373-16.243-32.523-29.021-35.988-51.179z"
      fill="#3f3d56"
    />
  </g>
  <polygon
    transform="scale(.45452)"
    points="424.25 77.438 442.35 83.008 449.1 107 412.06 107"
    fill="#ffb6b6"
  />
  <polygon
    transform="scale(.45452)"
    points="424.25 77.438 442.35 83.008 449.1 107 412.06 107"
    opacity=".1"
  />
  <g transform="scale(.45452)">
    <path
      d="m361.56 260.15c-0.47825 7.1714 2.8343 13.231 7.3983 13.535s8.6502-5.2634 9.1276-12.437c0.23003-2.8631-0.22893-5.7397-1.3385-8.389l1.6426-30.411-14.287-0.46665-0.10246 30.029c-1.4518 2.4795-2.2885 5.2707-2.4401 8.1399z"
      fill="#ffb6b6"
    />
    <path
      d="m404.58 141.53s-0.79011-22.366-9.3016-23.739-20.02 8.7196-20.02 8.7196l-17.581 72.826 2.6824 45.76 19.242-1.0869 4.516-43.354 20.462-59.125z"
      fill="#3f3d56"
    />
  </g>
  <g stroke-width=".45452">
    <path
      d="m221.4 185.81s6.3632 11.817 5.9087 11.363-8.1813 2.2726-8.1813 2.2726l-4.5452-11.817z"
      fill="#ffb6b6"
    />
    <path
      d="m230.79 103.09s3.2573 13.02 2.9287 12.468-8.489 0.188-8.489 0.188l-1.4952-12.573 7.0555-0.0833z"
      fill="#ffb6b6"
    />
    <path
      d="m205.49 44.997h-15.887l-17.293 11.817-4.9997 41.361 2.7271 8.1813 4.9997 9.5449s-4.9997-20.908 7.2723-12.726c12.272 8.1813 13.181 9.5449 13.181 9.5449l16.363-8.1813 6.136-33.862-4.5452-18.635z"
      fill="#3f3d56"
    />
  </g>
  <g fill="#2f2e41">
    <path
      d="m174.13 100.9c14.38 2.0201 27.369 0.25883 37.952-8.0393 0 0 7.7268 25.908-6.3632 28.635s-29.771-1.9601-31.589-6.5053c-1.8181-4.5452 0-14.09 0-14.09z"
      stroke-width=".45452"
    />
    <polygon
      transform="scale(.45452)"
      points="471.6 420.31 434.04 333.81 383.1 251 442.1 240 476.6 321.31 492.6 415.31"
    />
    <g stroke-width=".45452">
      <path
        d="m202.99 98.545s3.6362-28.18 10.454-29.998c3.3237-0.88632 6.4314-0.80045 8.7437-0.47964 2.3306 0.32334 4.1885 2.104 4.596 4.4213l6.1956 35.232h-8.7611l-2.8202-9.5449-7.4996 13.096-10.908-12.726z"
      />
      <path
        d="m225.26 112.18 8.6627-0.90904 1.3367 4.9997s14.09 12.726 6.8178 13.636c-7.2723 0.90904-14.09-4.0907-14.09-4.0907l-10.004-5.7387s3.8679-10.311 6.595-10.311 0.68178 2.4146 0.68178 2.4146z"
      />
      <path
        d="m220.72 197.4 8.6627-0.90904 1.3367 4.9997s14.09 12.726 6.8178 13.636c-7.2723 0.90903-14.09-4.0907-14.09-4.0907l-10.004-5.7387s0.68625-10.766 3.4134-10.766 3.8634 2.8692 3.8634 2.8692z"
      />
    </g>
  </g>
  <g stroke-width=".45452">
    <circle cx="197.06" cy="29.958" r="10.141" fill="#ffb6b6" />
    <path
      d="m200.94 18.634s1.6901 4.7323-1.014 5.7463c-2.7042 1.0141-6.4224 2.3661-6.0844 4.0562 0.33802 1.6901-1.014 6.7604-1.014 6.7604s8.1125 5.0703 2.7042 10.141-9.4645 2.981-8.6195 7.9128-7.6054 2.9038-7.6054 2.9038-3.0422-4.7323-0.67604-9.4645c2.3661-4.7323-1.6901 3.7182-2.7042 3.7182-1.0141 0-6.0844 1.3521-4.0562-4.3943 2.0281-5.7463 5.0703-6.0843 5.0703-10.479 0-4.3943 2.0281-9.8026 2.7042-10.479 0.67604-0.67604 3.7182-9.4645 9.8026-8.7885 6.0844 0.67604 11.493 2.3661 11.493 2.3661z"
      fill="#2f2e41"
    />
    <path
      d="m112.31 185.81s-6.3632 11.817-5.9087 11.363c0.45452-0.45452 8.1813 2.2726 8.1813 2.2726l4.5452-11.817z"
      fill="#a0616a"
    />
  </g>
  <g fill="#2f2e41">
    <path
      d="m159.58 100.9c-14.38 2.0201-27.369 0.25883-37.952-8.0393 0 0-7.7268 25.908 6.3632 28.635 14.09 2.7271 29.771-1.9601 31.589-6.5053 1.8181-4.5452 0-14.09 0-14.09z"
      stroke-width=".45452"
    />
    <polygon
      transform="scale(.45452)"
      points="262.6 420.31 300.17 333.81 351.1 251 292.1 240 257.6 321.31 241.6 415.31"
    />
    <path
      d="m112.99 197.4-8.6627-0.90904-1.3367 4.9997s-14.09 12.726-6.8178 13.636c7.2723 0.90903 14.09-4.0907 14.09-4.0907l10.004-5.7387s-0.68625-10.766-3.4134-10.766c-2.7271 0-3.8634 2.8692-3.8634 2.8692z"
      stroke-width=".45452"
    />
  </g>
  <path
    d="m126.68 179.6s-2.4071 13.204-2.115 12.632c0.29213-0.57257 8.4834-0.36224 8.4834-0.36224l0.67773-12.643z"
    fill="#a0616a"
    stroke-width=".45452"
  />
  <g fill="#2f2e41">
    <polygon
      transform="scale(.45452)"
      points="297.01 401.29 306.05 307.42 328.96 212.93 269.44 220.67 261.71 308.66 275.49 403.01"
    />
    <path
      d="m130.9 190.41-8.5206 1.8078 0.27092 5.1682s-9.4766 16.453-2.2786 15.074 12.141-8.238 12.141-8.238l7.7455-8.545s-3.9741-10.029-6.5682-9.1878c-2.5941 0.84133-2.7898 3.9211-2.7898 3.9211z"
      stroke-width=".45452"
    />
    <path
      d="m130.66 17.519s-4.3346 2.5421-2.913 5.056 3.4034 5.9382 2.0589 7.0166c-1.3445 1.0784-3.5642 5.8333-3.5642 5.8333s-9.4746-1.3233-8.5852 6.0365 5.3405 8.3632 1.5255 11.601c-3.815 3.2378 3.965 7.1101 3.965 7.1101s5.371-1.6737 6.5964-6.8207c1.2254-5.147-1.0923 3.9355-0.31503 4.5868 0.77732 0.65123 3.7956 4.9438 5.9312-0.76341 2.1357-5.7072 0.0208-7.92 2.8429-11.288 2.822-3.3683 4.7406-8.8165 4.6566-9.7688-0.084-0.95236 3.228-9.6427-1.87-13.032s-10.329-5.5669-10.329-5.5669z"
      stroke-width=".45452"
    />
  </g>
  <polygon
    transform="scale(.45452)"
    points="309.95 77.438 291.85 83.008 285.1 107 322.15 107"
    fill="#a0616a"
  />
  <polygon
    transform="scale(.45452)"
    points="309.95 77.438 291.85 83.008 285.1 107 322.15 107"
    opacity=".1"
  />
  <g transform="scale(.45452)">
    <path
      d="m372.65 260.15c0.47825 7.1714-2.8343 13.231-7.3983 13.535s-8.6502-5.2634-9.1276-12.437c-0.23003-2.8631 0.22893-5.7397 1.3385-8.389l-1.6426-30.411 14.287-0.46665 0.10246 30.029c1.4518 2.4795 2.2885 5.2707 2.4401 8.1399z"
      fill="#a0616a"
    />
    <path
      d="m329.62 141.53s0.79011-22.366 9.3016-23.739 20.02 8.7196 20.02 8.7196l17.581 72.826-2.6824 45.76-19.242-1.0869-4.516-43.354-20.462-59.125z"
      fill="#d4d4d4"
    />
  </g>
  <path
    d="m128.22 44.997h15.887l17.293 11.817 4.9997 41.361-2.7271 8.1813-4.9997 9.5449s4.9997-20.908-7.2723-12.726c-0.12272 0.0818-0.2443 0.16294-0.36476 0.2434-7.8997 5.2763-18.323 4.7346-25.636-1.3294l-5.8156-4.8227 3.1816-15.908-2.4998-29.316 7.9541-7.045z"
    fill="#d4d4d4"
    stroke-width=".45452"
  />
  <g transform="scale(.45452)">
    <path
      d="m194.64 212.93c-5.606 4.4978-12.471 5.2512-15.333 1.683-2.8619-3.5682-0.6369-10.106 4.9717-14.604 2.2158-1.8278 4.837-3.0983 7.6444-3.7054l23.993-18.758 8.5624 11.447-24.562 17.276c-1.2018 2.6099-3.0112 4.8939-5.2769 6.6608z"
      fill="#a0616a"
    />
    <path
      d="m267.27 109.75s18.79-12.157 24.789-5.9647 4.3123 21.406 4.3123 21.406l-49.644 56.108-39.054 23.999-10.125-16.399 32.96-28.523z"
      fill="#d4d4d4"
    />
  </g>
  <circle
    cx="136.65"
    cy="29.958"
    r="10.141"
    fill="#a0616a"
    stroke-width=".45452"
  />
  <path
    d="m131.6 23.161s-1.4939-4.9798 0.99597-4.9798c2.4899 0 12.45 0.49798 13.446 1.4939 0.99596 0.99596 12.781 10.992 5.8095 18.959-6.9718 7.9677 0 11.817 0 11.817s5.1461 12.05 0.16624 13.046c-4.9798 0.99596-25.407-4.699-20.417-13.944 5.4144-10.032 7.9335-25.867 0-26.393z"
    fill="#2f2e41"
    stroke-width=".45452"
  />
  <g transform="scale(.45452)">
    <g fill="#f2f2f2">
      <path
        d="m654.63 213.84c-0.35419-1.0838-3.0387-0.60669-3.2964-1.5761-0.25685-0.96594 2.3191-1.7759 4.2948-4.498 0.3563-0.49089 2.6014-3.5844 1.7404-4.8855-1.6322-2.4662-12.988 3.6762-15.714 0.22927-0.59824-0.75646-0.84437-2.0551-2.6265-4.472-0.70898-0.96147-1.1638-1.4256-1.7073-1.4119-0.77113 0.0195-1.047 0.98418-2.259 2.7317-1.8176 2.6207-2.4735 2.2917-3.6709 4.4389-0.88887 1.594-0.9942 2.6125-1.6352 2.6726-0.90705 0.085-1.2818-1.8996-2.3902-1.9766-1.131-0.0785-2.2628 1.8825-2.8238 3.4146-1.0528 2.8751-0.40089 5.0726-0.25634 7.2627 0.15706 2.38-0.21174 5.864-2.7978 10.336l-24.392 38.862c5.2384-7.9223 20.108-29.526 26.099-37.45 1.7295-2.2876 3.588-4.5846 6.4486-5.0167 2.7541-0.41608 6.1051 0.9465 10.782 0.86718 0.54625-9e-3 2.0665-0.0544 2.4362-0.86016 0.30573-0.66614-0.45336-1.2453-0.17722-1.8715 0.37038-0.83991 2.0368-0.47957 4.3078-1.0374 1.6014-0.39336 2.6893-1.0432 3.6249-1.6021 0.28206-0.1685 4.4839-2.7138 4.0124-4.1566h-4e-5z"
      />
      <path
        d="m590.74 222.91c-0.63416-0.1389-1.1745 1.3164-1.7247 1.1631-0.54821-0.15264-0.20248-1.6506-0.96847-3.4057-0.13813-0.3165-1.0086-2.311-1.8957-2.2638-1.6814 0.0895-1.9432 7.4354-4.4215 7.7787-0.54387 0.0754-1.2523-0.17855-2.9527-1e-3 -0.67646 0.0706-1.0355 0.15987-1.1856 0.43056-0.21293 0.38409 0.18092 0.79788 0.68891 1.8969 0.76182 1.6482 0.41106 1.8752 1.1195 3.0825 0.52589 0.89619 0.99539 1.2418 0.8399 1.5737-0.22 0.4697-1.3022 0.081-1.6598 0.60279-0.36488 0.53245 0.27105 1.6537 0.86113 2.3711 1.1074 1.3463 2.374 1.6604 3.4906 2.2214 1.2135 0.60963 2.817 1.7959 4.2656 4.3554l12.036 23.184c-2.3769-4.8569-8.6896-18.388-10.85-23.615-0.62375-1.5089-1.2149-3.0838-0.60158-4.6125 0.59043-1.4718 2.2261-2.7233 3.5367-5.0419 0.15308-0.27078 0.56954-1.0299 0.28078-1.4439-0.23873-0.34225-0.74203-0.13679-0.96968-0.453-0.30536-0.42414 0.35231-1.138 0.73376-2.4136 0.26898-0.89945 0.26391-1.6209 0.25955-2.2414-1e-3 -0.18705-0.0382-2.9837-0.88236-3.1686v6e-5z"
      />
      <path
        d="m602.75 228.57 0.37832-3.4929 0.23204-0.21944c1.0735-1.0146 1.7451-2.0895 1.997-3.1958 0.0401-0.17587 0.0711-0.35379 0.1029-0.53496 0.12563-0.71817 0.28159-1.611 0.97206-2.5382 0.38642-0.51664 1.4086-1.6843 2.4628-1.2765 0.28454 0.10665 0.47659 0.29111 0.61001 0.48669 0.0335-0.034 0.0678-0.0678 0.1045-0.10451 0.45539-0.44254 0.77396-0.60465 1.0808-0.76077 0.2358-0.12014 0.47929-0.24373 0.89134-0.5733 0.18077-0.1445 0.32552-0.27458 0.44749-0.38383 0.36992-0.33031 0.84308-0.71708 1.4912-0.56388 0.68704 0.18779 0.9226 0.84315 1.0789 1.277 0.27909 0.77389 0.36506 1.3061 0.42193 1.659 0.0205 0.12894 0.0442 0.27414 0.0622 0.32134 0.15038 0.379 2.0381 0.47702 2.7484 0.51798 1.5966 0.0866 2.9781 0.1616 3.3104 1.2548 0.2384 0.78209-0.25846 1.6351-1.5193 2.6028-0.39275 0.30105-0.78541 0.50883-1.1275 0.664 0.21041 0.19894 0.37804 0.4695 0.3883 0.83799 0.0231 0.87225-0.87152 1.5416-2.6589 1.9928-0.44416 0.11339-1.0416 0.26343-1.8234 0.22552-0.36818-0.0182-0.6907-0.0746-0.96567-0.12728-0.041 0.15667-0.11618 0.31955-0.25171 0.47414-0.39781 0.45538-1.0403 0.57117-1.9123 0.31448-0.96274-0.26828-1.7234-0.63312-2.3946-0.95383-0.5863-0.27931-1.0918-0.51816-1.516-0.58341-0.78894-0.11033-1.5246 0.37678-2.405 1.0251l-2.2061 1.655h-2e-5z"
      />
      <path
        d="m609.05 208.67-3.4746 0.52002-0.27111-0.16879c-1.2537-0.78108-2.4638-1.158-3.5978-1.1211-0.1803 6e-3 -0.36025 0.0209-0.54357 0.0362-0.72655 0.0606-1.6297 0.13624-2.7018-0.29644-0.59778-0.24273-1.9865-0.93531-1.8594-2.0585 0.031-0.30227 0.16071-0.53484 0.31606-0.7135-0.0414-0.0238-0.0828-0.0484-0.1276-0.0746-0.54357-0.32826-0.7812-0.59529-1.01-0.85253-0.17602-0.19762-0.35734-0.40179-0.78064-0.71678-0.18563-0.13821-0.34817-0.24522-0.48479-0.33548-0.41335-0.27401-0.90747-0.63364-0.92367-1.2994 7e-3 -0.7122 0.58157-1.1063 0.9616-1.3675 0.6778-0.46625 1.1708-0.68442 1.4978-0.82896 0.11952-0.0525 0.25396-0.11232 0.29506-0.14167 0.32846-0.24159-0.0555-2.0924-0.19606-2.7898-0.32117-1.5663-0.5991-2.9217 0.37411-3.5204 0.69605-0.42897 1.6472-0.16474 2.903 0.80945 0.39082 0.30354 0.69141 0.63066 0.92828 0.9222 0.13906-0.25398 0.35825-0.48479 0.7121-0.58814 0.83787-0.24358 1.7122 0.452 2.602 2.0664 0.22234 0.40087 0.51902 0.94071 0.68064 1.7065 0.0758 0.36075 0.10303 0.68702 0.12182 0.96639 0.16196-9e-5 0.33856 0.0313 0.52248 0.12321 0.54138 0.26929 0.81637 0.86137 0.78926 1.77-0.0153 0.9993-0.17526 1.8276-0.31524 2.5583-0.12147 0.63798-0.22429 1.1876-0.17979 1.6144 0.0934 0.79113 0.75118 1.3792 1.6016 2.0664l2.1604 1.7142h-9e-5z"
      />
      <path
        d="m609.51 198.24 0.37832-3.4929 0.23204-0.21944c1.0735-1.0146 1.7451-2.0895 1.997-3.1958 0.0401-0.17587 0.0711-0.35379 0.1029-0.53496 0.12563-0.71817 0.28159-1.611 0.97206-2.5382 0.38642-0.51664 1.4086-1.6843 2.4628-1.2765 0.28454 0.10665 0.47659 0.29111 0.61001 0.48669 0.0335-0.034 0.0678-0.0678 0.1045-0.10451 0.45539-0.44254 0.77396-0.60465 1.0808-0.76077 0.2358-0.12014 0.47929-0.24373 0.89134-0.5733 0.18077-0.1445 0.32552-0.27458 0.44749-0.38383 0.36992-0.33031 0.84308-0.71708 1.4912-0.56388 0.68704 0.18779 0.9226 0.84315 1.0789 1.277 0.27909 0.77389 0.36506 1.3061 0.42193 1.659 0.0205 0.12894 0.0442 0.27414 0.0622 0.32134 0.15038 0.379 2.0381 0.47702 2.7484 0.51798 1.5966 0.0866 2.9781 0.1616 3.3104 1.2548 0.2384 0.78209-0.25846 1.6351-1.5193 2.6028-0.39275 0.30105-0.78541 0.50883-1.1275 0.664 0.21041 0.19894 0.37804 0.4695 0.3883 0.83799 0.0231 0.87225-0.87152 1.5416-2.6589 1.9928-0.44416 0.11339-1.0416 0.26343-1.8234 0.22552-0.36818-0.0182-0.6907-0.0746-0.96567-0.12728-0.041 0.15667-0.11618 0.31955-0.25171 0.47414-0.39781 0.45538-1.0403 0.57117-1.9123 0.31448-0.96274-0.26828-1.7234-0.63312-2.3946-0.95383-0.5863-0.27931-1.0918-0.51816-1.516-0.58341-0.78894-0.11033-1.5246 0.37678-2.405 1.0251l-2.2061 1.655h-2e-5z"
      />
      <path
        d="m598.25 265.16-0.61431-0.60685 0.0111-0.8629-0.0111 0.8629-0.85388-0.0903c4e-3 -0.0803-2e-3 -0.26809-8e-3 -0.56139-0.0329-1.6068-0.13482-6.4971 0.54614-14.011 0.47549-5.2452 1.27-10.569 2.3616-15.827 1.0934-5.2662 2.2282-9.1846 3.1396-12.334 0.68784-2.3754 1.3821-4.6284 2.0598-6.8229 1.8087-5.8633 3.5164-11.402 4.574-17.719 0.23682-1.4102 0.72832-4.3458-0.27798-7.8107-0.58387-2.0095-1.5836-3.9011-2.9723-5.6203l1.3441-1.0855c1.5324 1.8998 2.6379 3.9946 3.2864 6.2258 1.1157 3.8416 0.58022 7.0404 0.32292 8.5773-1.0764 6.4291-2.8012 12.021-4.6276 17.941-0.67427 2.1867-1.3663 4.4298-2.0511 6.7955-0.90321 3.1202-2.0278 7.0045-3.107 12.203-1.0793 5.1951-1.8636 10.454-2.3339 15.633-0.67194 7.4192-0.571 12.237-0.53795 13.819 0.0171 0.84502 0.0208 1.022-0.2508 1.2948v-2e-5z"
      />
      <path
        d="m602.51 185.75c-0.0691-0.0154-0.13867-0.0326-0.20832-0.0534-1.4176-0.39736-2.5547-1.5526-3.3807-3.4331-0.3866-0.88425-0.47786-1.8149-0.65983-3.6709-0.0286-0.2862-0.15473-1.7342 3.7e-4 -3.6532 0.10091-1.254 0.23571-1.7576 0.57696-2.1531 0.37896-0.44058 0.88952-0.69289 1.429-0.81956 0.0146-0.16603 0.0689-0.32837 0.17666-0.48226 0.44384-0.63856 1.1868-0.37612 1.5899-0.23958 0.2031 0.0729 0.45619 0.16566 0.74088 0.2136 0.44739 0.0773 0.71454-1e-3 1.1189-0.11836 0.38693-0.11234 0.86804-0.25204 1.533-0.24018 1.3122 0.018 2.2835 0.60778 2.6038 0.80185 1.6869 1.0136 2.2693 2.6308 2.9434 4.5032 0.13393 0.37533 0.57841 1.7319 0.68191 3.4789 0.0747 1.2603-0.0904 1.7762-0.2798 2.1451-0.38679 0.75839-0.97906 1.1099-2.449 1.8496-1.5357 0.77504-2.3062 1.1628-2.938 1.3622-1.4701 0.4615-2.3932 0.75133-3.4792 0.50911v4e-5z"
      />
    </g>
    <path
      d="m167.16 204.69-1.1283-35.593c-0.0183-0.57773 0.20876-1.1402 0.62318-1.5432 0.41465-0.40319 0.98354-0.6146 1.5609-0.58l28.244 1.694c0.57061 0.0339 1.106 0.30678 1.4689 0.7483 0.36308 0.44131 0.5274 1.0192 0.4509 1.5854l-4.778 35.376c-0.14456 1.0704-1.1018 1.8527-2.1793 1.7812l-22.338-1.4772c-0.22662-0.015-0.44244-0.0655-0.6423-0.14633-0.73773-0.29841-1.2557-1.0075-1.2823-1.8456z"
      fill="#d4d4d4"
    />
    <path
      d="m166.07 165.77c0.39515-0.0416 0.92446-0.0928 1.5599-0.14615-0.16988-0.31634-0.2394-0.69041-0.16677-1.0744l0.50439-2.6661c0.13091-0.69193 0.68838-1.2224 1.3864-1.3157 4.1587-0.55609 18.463-2.0648 27.47 2.0215 0.56351 0.25568 0.92604 0.81706 0.94397 1.4356l0.0824 2.8443c0.0102 0.35169-0.092 0.67764-0.27111 0.94787 0.74877 0.20134 1.4951 0.41425 2.2355 0.6464 0.46395 0.14548 0.79603 0.55495 0.85181 1.038l0.13993 1.2115c0.0888 0.76878-0.54147 1.4297-1.3136 1.3776l-33.766-2.2804c-0.76842-0.0519-1.3036-0.78519-1.1187-1.5328l0.38904-1.5728c0.12533-0.50673 0.55439-0.87967 1.0735-0.93433z"
      fill="#3f3d56"
    />
    <path
      d="m82.16 103.69-1.1283-35.593c-0.01831-0.57773 0.20876-1.1402 0.62318-1.5432 0.41465-0.40319 0.98354-0.6146 1.5609-0.58l28.244 1.694c0.57061 0.03392 1.106 0.30678 1.4689 0.7483 0.36308 0.44131 0.5274 1.0192 0.4509 1.5854l-4.778 35.376c-0.14456 1.0704-1.1018 1.8527-2.1793 1.7812l-22.338-1.4772c-0.22662-0.015-0.44244-0.0655-0.6423-0.14633-0.73773-0.29841-1.2557-1.0075-1.2823-1.8456z"
      fill="#d4d4d4"
    />
    <path
      d="m81.066 64.77c0.39515-0.04162 0.92446-0.09278 1.5599-0.14615-0.16988-0.31634-0.2394-0.69041-0.16677-1.0744l0.50439-2.6661c0.13091-0.69193 0.68838-1.2224 1.3864-1.3157 4.1587-0.55609 18.463-2.0648 27.47 2.0215 0.56351 0.25568 0.92604 0.81706 0.94397 1.4356l0.0824 2.8443c0.0102 0.35169-0.092 0.67764-0.27111 0.94787 0.74877 0.20134 1.4951 0.41425 2.2355 0.6464 0.46395 0.14548 0.79603 0.55495 0.85181 1.038l0.13993 1.2115c0.0888 0.76878-0.54147 1.4297-1.3136 1.3776l-33.766-2.2804c-0.76842-0.05189-1.3036-0.78519-1.1187-1.5328l0.38904-1.5728c0.12533-0.50673 0.55439-0.87967 1.0735-0.93433z"
      fill="#3f3d56"
    />
    <path
      d="m525.16 213.69-1.1283-35.593c-0.0183-0.57773 0.20876-1.1402 0.62318-1.5432 0.41465-0.40319 0.98354-0.6146 1.5609-0.58l28.244 1.694c0.57061 0.0339 1.106 0.30678 1.4689 0.7483 0.36308 0.44131 0.5274 1.0192 0.4509 1.5854l-4.778 35.376c-0.14456 1.0704-1.1018 1.8527-2.1793 1.7812l-22.338-1.4772c-0.22662-0.015-0.44244-0.0655-0.6423-0.14633-0.73773-0.29841-1.2557-1.0075-1.2823-1.8456z"
      fill="#d4d4d4"
    />
    <path
      d="m524.07 174.77c0.39515-0.0416 0.92446-0.0928 1.5599-0.14615-0.16988-0.31634-0.2394-0.69041-0.16677-1.0744l0.50439-2.6661c0.13091-0.69193 0.68838-1.2224 1.3864-1.3157 4.1587-0.55609 18.463-2.0648 27.47 2.0215 0.56351 0.25568 0.92604 0.81706 0.94397 1.4356l0.0824 2.8443c0.0102 0.35169-0.092 0.67764-0.27111 0.94787 0.74877 0.20134 1.4951 0.41425 2.2355 0.6464 0.46395 0.14548 0.79603 0.55495 0.85181 1.038l0.13993 1.2115c0.0888 0.76878-0.54147 1.4297-1.3136 1.3776l-33.766-2.2804c-0.76842-0.0519-1.3036-0.78519-1.1187-1.5328l0.38904-1.5728c0.12533-0.50673 0.55439-0.87967 1.0735-0.93433z"
      fill="#3f3d56"
    />
  </g>
</svg>
